<svg width="12" height="20" viewBox="0 0 12 20" fill="none" xmlns="http://www.w3.org/2000/svg">
<path d="M5.03999 0.379989C4.87999 0.539989 1.72999 3.98997 0.769989 5.04997C0.399989 5.45997 0.429996 6.08998 0.839996 6.45998C1.25 6.82998 1.87998 6.79997 2.24998 6.38997C3.08998 5.46997 4.14998 4.30999 4.99998 3.37999L4.99999 16.56C3.81999 15.32 2.40999 13.85 2.40999 13.85C2.02999 13.45 1.39998 13.44 0.999985 13.82C0.599985 14.2 0.589986 14.83 0.969986 15.23C2.20999 16.53 5.10999 19.56 5.17999 19.63C5.38999 19.84 5.66 19.96 5.95 19.99C6.32 20.02 6.68 19.89 6.95 19.61C7.1 19.46 10.13 16.14 11.05 15.12C11.22 14.93 11.31 14.69 11.31 14.45C11.31 14.18 11.2 13.91 10.98 13.71C10.57 13.34 9.93999 13.37 9.56999 13.78C8.78999 14.64 7.79999 15.72 6.99999 16.6L6.99998 3.42998C8.23998 4.72998 9.75999 6.31999 9.75999 6.31999C10.14 6.71999 10.77 6.72999 11.17 6.34999C11.38 6.14999 11.48 5.88999 11.48 5.62999C11.48 5.37999 11.39 5.12999 11.2 4.93999C9.91 3.58999 6.88999 0.42997 6.81999 0.35997C6.37999 -0.0700305 5.59999 -0.180031 5.03999 0.389969L5.03999 0.379989Z" fill="#4D4D4F"/>
</svg>
