<svg width="18" height="18" viewBox="0 0 18 18" fill="none" xmlns="http://www.w3.org/2000/svg">
<path d="M1.22184 2.63604C0.831315 2.24552 0.831315 1.61235 1.22184 1.22183C1.61236 0.831302 2.24553 0.831301 2.63605 1.22183L16.7782 15.364C17.1687 15.7545 17.1687 16.3877 16.7782 16.7782C16.3877 17.1687 15.7545 17.1687 15.364 16.7782L1.22184 2.63604Z" fill="#4D4D4F"/>
<path d="M2.63605 16.7782C2.24553 17.1687 1.61236 17.1687 1.22184 16.7782C0.831315 16.3877 0.831315 15.7545 1.22184 15.364L15.364 1.22182C15.7545 0.831301 16.3877 0.8313 16.7782 1.22182C17.1687 1.61235 17.1687 2.24551 16.7782 2.63604L2.63605 16.7782Z" fill="#4D4D4F"/>
</svg>
