<svg width="28" height="25" viewBox="0 0 28 25" fill="none" xmlns="http://www.w3.org/2000/svg">
<path d="M0.65332 4.63995C0.639987 3.39995 1.10668 2.22658 1.97335 1.34658C2.82668 0.479911 3.95999 0.0132446 5.15999 0.0132446H22.9733C24.1067 0.0132446 25.16 0.43997 25.96 1.23997C26.8267 2.10664 27.32 3.35997 27.3067 4.6533C27.3067 5.9733 26.72 7.22657 25.7333 8.09324L18.8667 14.2C18.6 14.44 18.3067 15.1332 18.3067 15.7466V20.04C18.3067 20.9334 17.8267 21.7732 17.0533 22.2399L16.8534 22.3467L13.36 23.7199C12.9867 23.9199 12.5733 24.0267 12.16 24.0267C11.7333 24.0267 11.3067 23.92 10.9067 23.6933C10.0933 23.24 9.60002 22.3733 9.60002 21.4399V15.4933C9.60002 15.1866 9.29331 14.5733 8.81331 14.1466L2.13334 7.97329C1.20001 7.13329 0.653348 5.91995 0.640015 4.63995H0.65332ZM15.68 19.9332L15.64 15.7332C15.64 14.5999 16.0933 13.0667 17.1066 12.1867L23.9733 6.07998C24.4 5.70664 24.64 5.18661 24.64 4.62661C24.64 4.03994 24.4267 3.47992 24.0667 3.10659C23.8533 2.89325 23.5067 2.6533 22.9733 2.6533H5.17334C4.68001 2.66663 4.21333 2.86661 3.86666 3.21328C3.50666 3.58661 3.30665 4.06657 3.31999 4.58657V4.62661C3.31999 5.14661 3.55999 5.65331 3.94666 5.99998L10.6267 12.1733C11.3867 12.8667 12.2933 14.1466 12.2933 15.4933V21.4399" fill="#676A71"/>
</svg>
