<svg width="6" height="22" viewBox="0 0 6 22" fill="none" xmlns="http://www.w3.org/2000/svg">
<path d="M3.00004 8.86664C1.82671 8.86664 0.866699 9.82665 0.866699 11C0.866699 12.1733 1.82671 13.1333 3.00004 13.1333C4.17337 13.1333 5.13338 12.1733 5.13338 11C5.13338 9.82665 4.17337 8.86664 3.00004 8.86664Z" fill="#676A71"/>
<path d="M3.00004 17.4C1.82671 17.4 0.866699 18.36 0.866699 19.5333C0.866699 20.7066 1.82671 21.6666 3.00004 21.6666C4.17337 21.6666 5.13338 20.7066 5.13338 19.5333C5.13338 18.36 4.17337 17.4 3.00004 17.4Z" fill="#676A71"/>
<path d="M3.00004 4.59996C4.17337 4.59996 5.13338 3.63995 5.13338 2.46661C5.13338 1.29328 4.17337 0.333313 3.00004 0.333313C1.82671 0.333313 0.866699 1.29328 0.866699 2.46661C0.866699 3.63995 1.82671 4.59996 3.00004 4.59996Z" fill="#676A71"/>
</svg>
