<svg width="32" height="32" viewBox="0 0 32 32" fill="none" xmlns="http://www.w3.org/2000/svg">
<path d="M15.809 9.36163L10.3788 15.0721C10.2588 15.1959 10.1635 15.3431 10.0985 15.5053C10.0335 15.6675 10 15.8415 10 16.0172C10 16.1929 10.0335 16.3669 10.0985 16.5291C10.1635 16.6914 10.2588 16.8386 10.3788 16.9623L15.809 22.6063C15.928 22.731 16.0697 22.83 16.2258 22.8976C16.3818 22.9652 16.5492 23 16.7183 23C16.8874 23 17.0547 22.9652 17.2108 22.8976C17.3669 22.83 17.5085 22.731 17.6276 22.6063C17.8661 22.3569 18 22.0195 18 21.6678C18 21.3162 17.8661 20.9788 17.6276 20.7294L13.0939 16.0172L17.6276 11.3051C17.8642 11.0571 17.9976 10.7225 17.999 10.3733C18 10.1981 17.9677 10.0244 17.9039 9.86226C17.8402 9.70008 17.7463 9.55257 17.6276 9.42819C17.5128 9.29897 17.3745 9.19467 17.2208 9.12132C17.067 9.04797 16.9007 9.00701 16.7316 9.00082C16.5625 8.99463 16.3939 9.02334 16.2356 9.08526C16.0772 9.14719 15.9322 9.24113 15.809 9.36163Z" fill="#C6C6C6"/>
<path d="M23.809 9.36163L18.3788 15.0721C18.2588 15.1959 18.1635 15.3431 18.0985 15.5053C18.0335 15.6675 18 15.8415 18 16.0172C18 16.1929 18.0335 16.3669 18.0985 16.5291C18.1635 16.6914 18.2588 16.8386 18.3788 16.9623L23.809 22.6063C23.928 22.731 24.0697 22.83 24.2258 22.8976C24.3818 22.9652 24.5492 23 24.7183 23C24.8874 23 25.0547 22.9652 25.2108 22.8976C25.3669 22.83 25.5085 22.731 25.6276 22.6063C25.8661 22.3569 26 22.0195 26 21.6678C26 21.3162 25.8661 20.9788 25.6276 20.7294L21.0939 16.0172L25.6276 11.3051C25.8642 11.0571 25.9976 10.7225 25.999 10.3733C26 10.1981 25.9677 10.0244 25.9039 9.86226C25.8402 9.70008 25.7463 9.55257 25.6276 9.42819C25.5128 9.29897 25.3745 9.19467 25.2208 9.12132C25.067 9.04797 24.9007 9.00701 24.7316 9.00082C24.5625 8.99463 24.3939 9.02334 24.2356 9.08526C24.0772 9.14719 23.9322 9.24113 23.809 9.36163Z" fill="#C6C6C6"/>
</svg>
