<svg width="48" height="48" viewBox="0 0 48 48" fill="none" xmlns="http://www.w3.org/2000/svg">
<circle cx="24" cy="24" r="24" fill="#F0F0F0"/>
<path d="M24.0003 22.6667C27.307 22.6667 30.0003 19.9733 30.0003 16.6667C30.0003 13.36 27.307 10.6667 24.0003 10.6667C20.6937 10.6667 18.0003 13.36 18.0003 16.6667C18.0003 19.9733 20.6937 22.6667 24.0003 22.6667ZM24.0003 13.3333C25.8403 13.3333 27.3337 14.8267 27.3337 16.6667C27.3337 18.5067 25.8403 20 24.0003 20C22.1603 20 20.667 18.5067 20.667 16.6667C20.667 14.8267 22.1603 13.3333 24.0003 13.3333Z" fill="#676A71"/>
<path d="M28.0003 24H20.0003C17.0537 24 14.667 26.3867 14.667 29.3333V30.6667C14.667 33.6133 17.0537 36 20.0003 36H28.0003C30.947 36 33.3337 33.6133 33.3337 30.6667V29.3333C33.3337 26.3867 30.947 24 28.0003 24ZM30.667 30.6667C30.667 32.1333 29.467 33.3333 28.0003 33.3333H20.0003C18.5337 33.3333 17.3337 32.1333 17.3337 30.6667V29.3333C17.3337 27.8667 18.5337 26.6667 20.0003 26.6667H28.0003C29.467 26.6667 30.667 27.8667 30.667 29.3333V30.6667Z" fill="#676A71"/>
</svg>
